<?xml version="1.0" encoding="utf-8"?>
<!-- Generator: Adobe Illustrator 19.0.0, SVG Export Plug-In . SVG Version: 6.00 Build 0)  -->
<svg version="1.1" id="layer" xmlns="http://www.w3.org/2000/svg" xmlns:xlink="http://www.w3.org/1999/xlink" x="0px" y="0px"
	 viewBox="-153 -46 652 652" style="enable-background:new -153 -46 652 652;" xml:space="preserve">
<style type="text/css">
	.st0{fill:#EA0000;}
</style>
<g>
	<g>
		<path class="st0" d="M153,231.9H85.4c-15.1,2.2-24.4,13.2-24.7,26.9c0,0.6,0,1.4,0.3,2c1.4,12.9,12.1,24.1,25.5,24.7l42.9-0.6
			c2.2,0.3,3.6,1.4,3.6,3.4c0,1.4-0.8,2.5-3.4,3.1H64.1v23.6h69.5c14.3-2.2,24.4-14.6,22.4-29.7c-1.7-12.9-10.4-21.3-23.3-23.3H88.2
			c-2.5,0-3.6-1.7-3.6-3.1c0-2.2,1.4-3.1,3.4-3.4H153L153,231.9z"/>
		<path class="st0" d="M223.7,231.9h-29.4L155,315.2l29.4,0.3l5.9-14h37l5.9,14h29.2L223.7,231.9z M199.8,279.9l9.3-22.4l9.3,22.4
			H199.8z"/>
		<polygon class="st0" points="296.3,232.2 267.1,231.9 266.8,314.9 289,314.9 289,259.7 328,314.9 356.9,314.9 356.9,232.2 
			334.4,232.2 335,287.4 		"/>
		<polygon class="st0" points="389.4,231.9 360.5,231.9 400.3,286.6 400.3,315.2 428.9,315.2 428.9,286.3 469,232.2 439.8,231.9 
			414.6,267.3 		"/>
	</g>
	<g>
		<path class="st0" d="M-122.9,319.4l43.7-12.9c0.6-0.3,0.8-0.8,0.8-1.4c0-0.6-0.3-1.1-1.1-1.1l-6.4-1.1h-0.3
			c-0.3-0.3-0.6-0.8-0.3-1.4l25-28.6c2.5-3.1,5.9-5,10.1-3.9l-9.3-28.6l-64.5,75.1c-0.8,0.8-0.8,2-0.3,3.1
			C-124.9,319.1-124,319.7-122.9,319.4"/>
		<path class="st0" d="M-56.2,196l-10.4,44c0,0.6,0.3,1.1,0.6,1.4c0.6,0.3,1.1,0.3,1.7-0.3l4.2-5c0,0,0.3,0,0.3-0.3
			c0.6-0.3,1.1-0.3,1.4,0.3l12.6,37.3c1.7,4.8,0,7.9-2.8,10.1l30,5.6L-51.4,196c-0.3-1.1-1.4-1.7-2.2-1.7
			C-54.8,194.4-55.6,194.9-56.2,196"/>
		<path class="st0" d="M18.1,315.2l-33.1-30.8c-0.6-0.3-1.1-0.3-1.7,0c-0.3,0.3-0.8,0.8-0.6,1.7l2.2,6.2v0.3c0,0.6-0.3,0.8-1.1,0.8
			l-38.7-7.6c-3.6-0.6-6.2-2.5-7.6-7.3l-19.9,23l97.9,18.2c1.1,0.3,2.2-0.3,2.8-1.1C19,317.5,18.7,316.3,18.1,315.2"/>
		<path class="st0" d="M17.3,307.4c11.2-25.2,6.7-55.2-9.8-77.1c-11.2-14.6-29.7-26.6-51.6-29.2c-2.2,0-2.5,2.2-0.6,3.1
			c44.3,12.1,70.7,49.9,58.9,102.3c-0.3,1.1,0,1.7,1.1,2C16.2,308.8,16.7,308.5,17.3,307.4"/>
		<path class="st0" d="M-115.3,323.1c16.3,22.2,44.9,33.4,72.1,30c18.5-2.2,37.6-12.1,51-29.7c0.8-1.4,0.3-2.2-0.6-2.5
			c-0.6-0.3-1.4-0.3-2,0.8c-32.5,32.2-78.5,35.3-118.3-0.8c-0.6-0.8-1.7-0.8-2.2-0.6C-115.9,320.8-116.2,321.7-115.3,323.1"/>
		<path class="st0" d="M-62.3,200.8c-27.5,3.1-52.4,22.4-63.1,47.7c-7,17.1-8.1,38.4,0.8,58.6c0.8,1.4,2.2,1.1,2.8,0
			c0.3-0.3,0.3-0.8,0-1.4c-12.3-44.3,8.7-85.5,60-101.8C-59.8,203.6-60.7,200.8-62.3,200.8"/>
	</g>
</g>
</svg>
